# xmcd CD database file
#
# Track frame offsets:
#	150
#	12556
#	26998
#	51604
#	70291
#	86197
#	103429
#	124804
#	136961
#	161945
#	174554
#	192931
#
# Disc length: 2833 seconds
#
# Revision: 0
# Processed by: cddbd v1.5.2PL0 Copyright (c) Steve Scherf et al.
# Submitted via: CDex 1.51
#
DISCID=be0b0f0c
DTITLE=Verve Remixed - Vol.4
DYEAR=2008
DGENRE=Jazz
TTITLE0=Cry Me A River - Truth and Soul Remix Dinah Washington
TTITLE1=Gimme Some - Mike Mangini Remix Nina Simone
TTITLE2=There Was A Time - Kenny Dope Remix James Brown and The Famous Flames
TTITLE3=California Soul - Diplo/Mad Decent Remix Marlena Shaw
TTITLE4=Take Care Of Business - Pilooski Remix Nina Simone
TTITLE5=Bim Bom - Psapp Remix Astrud Gilberto
TTITLE6=Tenderly - Mocky Remix Anita O'Day
TTITLE7=Tea For Two - Chris Shaw Remix Sarah Vaughan
TTITLE8=Dilo Como Yo - Antibalas Remix Patato Y Totico
TTITLE9=Evil Ways - Karriem Riggins Remix Willie Bobo
TTITLE10=Everybody Loves The Sunshine - 9th Wonder Remix Roy Ayers Ubiquity
TTITLE11=I Get A Kick Out Of You - Cinematic Orchestra Remix Ella Fitzgerald
EXTD=YEAR: 2008
EXTT0=
EXTT1=
EXTT2=
EXTT3=
EXTT4=
EXTT5=
EXTT6=
EXTT7=
EXTT8=
EXTT9=
EXTT10=
EXTT11=
PLAYORDER=
